<svg width="195" height="215" viewBox="0 0 195 215" version="1.1" xmlns="http://www.w3.org/2000/svg" xmlns:xlink="http://www.w3.org/1999/xlink">
<g id="Canvas" fill="none">
<g id="makerduo-logo">
<g id="M">
<g id="Rectangle 3" filter="url(#filter0_dd)">
<rect width="157" height="157" rx="38.2181" transform="translate(19 18)" fill="white"/>
</g>
<g id="Rectangle 3.1">
<rect width="112.318" height="112.405" rx="56.1589" transform="translate(41.3412 40.2977)" fill="url(#paint0_radial)"/>
</g>
<g id="Mask Group">
<mask id="mask0" mask-type="alpha" maskUnits="userSpaceOnUse" x="41" y="40" width="113" height="113">
<g id="Rectangle 3.4">
<rect width="112.318" height="112.405" rx="56.1589" transform="translate(41.3412 40.2977)" fill="url(#paint1_radial)"/>
</g>
</mask>
<g mask="url(#mask0)">
<g id="Rectangle 3.3" opacity="0.8">
<rect width="89.6706" height="89.8016" rx="44.8353" transform="translate(56.9493 73.8969)" fill="url(#paint2_linear)"/>
</g>
<g id="Rectangle 3.5" opacity="0.8">
<rect width="89.5078" height="89.9649" rx="44.7539" transform="matrix(-0.25929 -0.9658 0.966052 -0.258349 85.2357 146.152)" fill="url(#paint3_linear)"/>
</g>
<g id="Rectangle 3.6" opacity="0.6">
<rect width="89.5078" height="89.9649" rx="44.7539" transform="matrix(-0.25929 -0.9658 0.966052 -0.258349 57.6918 130.88)" fill="url(#paint4_linear)"/>
</g>
<g id="Rectangle 3.7" opacity="0.7">
<rect width="89.4961" height="89.9766" rx="44.7481" transform="matrix(0 -1 1 0 23.1316 152.55)" fill="url(#paint5_linear)"/>
</g>
</g>
</g>
<g id="Rectangle 3.2" filter="url(#filter1_d)">
<rect width="76.2047" height="76.3619" rx="38.1023" transform="translate(59.3977 58.3191)" fill="white"/>
</g>
<g id="Group">
<g id="Mask Group_2">
<mask id="mask1" mask-type="alpha" maskUnits="userSpaceOnUse" x="79" y="79" width="23" height="26">
<g id="Rectangle">
<rect width="21.3979" height="24.8047" transform="translate(79.9025 79.3949)" fill="#FE544D"/>
</g>
</mask>
<g mask="url(#mask1)">
<g id="Polygon">
<path d="M 17.7019 0L 35.4038 18.7228L 0 18.7228L 17.7019 0Z" transform="translate(62.2006 81.78)" fill="#FE544D"/>
</g>
</g>
</g>
<g id="Mask Group_3">
<mask id="mask2" mask-type="alpha" maskUnits="userSpaceOnUse" x="93" y="79" width="23" height="26">
<g id="Rectangle_2">
<rect width="21.3979" height="24.8047" transform="translate(115.097 79.3949) scale(-1 1)" fill="#FE544D"/>
</g>
</mask>
<g mask="url(#mask2)">
<g id="Polygon_2">
<path d="M 17.7019 0L 35.4038 18.7228L 0 18.7228L 17.7019 0Z" transform="translate(132.799 81.78) scale(-1 1)" fill="#FE544D"/>
</g>
</g>
</g>
<g id="Rectangle_3">
<rect width="13.1179" height="35.1434" transform="matrix(0 -1 1 0 79.9025 113.621)" fill="#FE544D"/>
</g>
</g>
</g>
<g id="MAKERDUO">
<path d="M 8.12668 13.8438L 11.3475 3.14828L 11.4328 3.14828L 11.4328 13.8438L 14.1204 13.8438L 14.1204 0.258763L 10.0037 0.258763L 7.2095 10.1349L 7.14551 10.1349L 4.20199 0.258763L 0 0.258763L 0 13.8438L 2.47427 13.8438L 2.47427 3.14828L 2.55958 3.14828L 5.84439 13.8438L 8.12668 13.8438Z" transform="translate(43 200)" fill="black"/>
<path d="M 20.8704 0.258763L 15.4313 13.8438L 18.1189 13.8438L 19.42 10.4799L 25.1364 10.4799L 26.4802 13.8438L 29.3171 13.8438L 23.8353 0.258763L 20.8704 0.258763ZM 22.2142 3.32079L 22.2996 3.32079L 24.3259 8.40979L 20.2306 8.40979L 22.2142 3.32079Z" transform="translate(43 200)" fill="black"/>
<path d="M 42.5861 13.8438L 36.6351 6.14561L 42.1382 0.258763L 39.024 0.258763L 33.2863 6.40438L 33.2863 0.258763L 30.62 0.258763L 30.62 13.8438L 33.2863 13.8438L 33.2863 9.33702L 34.6727 7.89226L 39.3866 13.8438L 42.5861 13.8438Z" transform="translate(43 200)" fill="black"/>
<path d="M 53.706 11.6012L 46.2832 11.6012L 46.2832 8.02164L 51.9569 8.02164L 51.9569 5.8006L 46.2832 5.8006L 46.2832 2.50137L 53.514 2.50137L 53.514 0.258763L 43.6596 0.258763L 43.6596 13.8438L 53.706 13.8438L 53.706 11.6012Z" transform="translate(43 200)" fill="black"/>
<path d="M 66.9645 13.8438C 66.5166 13.3478 66.4526 12.6578 66.2819 10.6524C 66.1326 9.05669 65.3434 8.15102 63.8077 7.84913C 65.4501 7.6335 66.7725 6.4475 66.7725 4.39897C 66.7725 1.87603 65.0874 0.258763 61.6533 0.258763L 55.5743 0.258763L 55.5743 13.8438L 58.1979 13.8438L 58.1979 8.81949L 61.3547 8.81949C 62.8905 8.81949 63.573 9.50953 63.6797 11.0405C 63.7863 12.55 63.957 13.4772 64.2343 13.8438L 66.9645 13.8438ZM 58.1979 6.70627L 58.1979 2.43668L 61.2907 2.43668C 63.2317 2.43668 64.1276 3.23453 64.1276 4.59304C 64.1276 6.05936 63.2317 6.70627 61.2907 6.70627L 58.1979 6.70627Z" transform="translate(43 200)" fill="black"/>
<path d="M 72.2156 10.9543L 72.2156 3.14828L 73.6447 3.14828C 75.991 3.14828 77.3775 4.57147 77.3775 7.02972C 77.3775 9.53109 75.991 10.9543 73.6447 10.9543L 72.2156 10.9543ZM 68.5895 13.8438L 73.9007 13.8438C 78.3586 13.8438 81.1102 11.2993 81.1102 7.05128C 81.1102 2.80326 78.3586 0.258763 73.9007 0.258763L 68.5895 0.258763L 68.5895 13.8438Z" transform="translate(43 200)" fill="black"/>
<path d="M 88.5815 14.1026C 92.0369 14.1026 94.7031 12.4206 94.7031 8.45291L 94.7031 0.258763L 91.0771 0.258763L 91.0771 7.84913C 91.0771 9.91923 90.4585 11.019 88.5815 11.019C 86.7258 11.019 86.0859 9.91923 86.0859 7.84913L 86.0859 0.258763L 82.4811 0.258763L 82.4811 8.45291C 82.4811 12.4206 85.126 14.1026 88.5815 14.1026Z" transform="translate(43 200)" fill="black"/>
<path d="M 110 7.05128C 110 2.86795 106.928 0 103.025 0C 99.1218 0 96.0503 2.86795 96.0503 7.05128C 96.0503 11.2346 99.1218 14.1026 103.025 14.1026C 106.928 14.1026 110 11.2346 110 7.05128ZM 106.267 7.05128C 106.267 9.35858 105.009 10.868 103.025 10.868C 101.041 10.868 99.783 9.35858 99.783 7.05128C 99.783 4.74398 101.041 3.23453 103.025 3.23453C 105.009 3.23453 106.267 4.74398 106.267 7.05128Z" transform="translate(43 200)" fill="black"/>
</g>
</g>
</g>
<defs>
<filter id="filter0_dd" x="0.655298" y="0.878278" width="193.689" height="193.689" filterUnits="userSpaceOnUse" color-interpolation-filters="sRGB">
<feFlood flood-opacity="0" result="BackgroundImageFix"/>
<feColorMatrix in="SourceAlpha" type="matrix" values="0 0 0 0 0 0 0 0 0 0 0 0 0 0 0 0 0 0 255 0"/>
<feOffset dy="4.89192"/>
<feGaussianBlur stdDeviation="6.1149"/>
<feColorMatrix type="matrix" values="0 0 0 0 0 0 0 0 0 0 0 0 0 0 0 0 0 0 0.05 0"/>
<feBlend mode="normal" in2="BackgroundImageFix" result="effect1_dropShadow"/>
<feColorMatrix in="SourceAlpha" type="matrix" values="0 0 0 0 0 0 0 0 0 0 0 0 0 0 0 0 0 0 255 0"/>
<feOffset dy="1.22298"/>
<feGaussianBlur stdDeviation="9.17235"/>
<feColorMatrix type="matrix" values="0 0 0 0 0.85098 0 0 0 0 0.419608 0 0 0 0 0.419608 0 0 0 0.025 0"/>
<feBlend mode="normal" in2="effect1_dropShadow" result="effect2_dropShadow"/>
<feBlend mode="normal" in="SourceGraphic" in2="effect2_dropShadow" result="shape"/>
</filter>
<filter id="filter1_d" x="41.053" y="44.8663" width="112.894" height="113.051" filterUnits="userSpaceOnUse" color-interpolation-filters="sRGB">
<feFlood flood-opacity="0" result="BackgroundImageFix"/>
<feColorMatrix in="SourceAlpha" type="matrix" values="0 0 0 0 0 0 0 0 0 0 0 0 0 0 0 0 0 0 255 0"/>
<feOffset dy="4.89192"/>
<feGaussianBlur stdDeviation="9.17235"/>
<feColorMatrix type="matrix" values="0 0 0 0 0.936681 0 0 0 0 0.269961 0 0 0 0 0.269961 0 0 0 0.5 0"/>
<feBlend mode="normal" in2="BackgroundImageFix" result="effect1_dropShadow"/>
<feBlend mode="normal" in="SourceGraphic" in2="effect1_dropShadow" result="shape"/>
</filter>

<radialGradient id="paint0_radial" cx="0.5" cy="0.5" r="0.5" gradientUnits="userSpaceOnUse" gradientTransform="matrix(2.14229 99.5759 -99.4989 2.13232 102.542 11.7626)">
<stop stop-color="#FF7933"/>
<stop offset="1" stop-color="#FFAA7D"/>
</radialGradient>
<radialGradient id="paint1_radial" cx="0.5" cy="0.5" r="0.5" gradientUnits="userSpaceOnUse" gradientTransform="matrix(2.14229 99.5759 -99.4989 2.13232 102.542 11.7626)">
<stop stop-color="#FF7933"/>
<stop offset="1" stop-color="#FFAA7D"/>
</radialGradient>
<linearGradient id="paint2_linear" x2="1" gradientUnits="userSpaceOnUse" gradientTransform="matrix(0 89.8016 -89.6706 0 89.6706 0)">
<stop stop-color="#FF7D7D"/>
<stop offset="1" stop-color="#FF023F" stop-opacity="0"/>
</linearGradient>
<linearGradient id="paint3_linear" x2="1" gradientUnits="userSpaceOnUse" gradientTransform="matrix(0 89.9649 -89.5078 0 89.5078 0)">
<stop stop-color="#FF7D7D"/>
<stop offset="1" stop-color="#FF3C3C" stop-opacity="0.82"/>
</linearGradient>
<linearGradient id="paint4_linear" x2="1" gradientUnits="userSpaceOnUse" gradientTransform="matrix(0 89.9649 -89.5078 0 89.5078 0)">
<stop stop-color="#FF7D7D"/>
<stop offset="1" stop-color="#FF2424" stop-opacity="0.57"/>
</linearGradient>
<linearGradient id="paint5_linear" x2="1" gradientUnits="userSpaceOnUse" gradientTransform="matrix(0 89.9766 -89.4961 0 89.4961 0)">
<stop stop-color="#FC945D"/>
<stop offset="1" stop-color="#FF004D" stop-opacity="0"/>
</linearGradient>

</defs>
</svg>

