<svg width="141" height="45" viewBox="0 0 141 45" fill="none" xmlns="http://www.w3.org/2000/svg">
<rect width="141" height="45" rx="5" fill="black"/>
<path d="M6.48438 6.29261V7.19815C6.48438 7.74976 6.36364 8.24455 6.12216 8.68253C5.88068 9.1205 5.54451 9.46615 5.11364 9.71946C4.68277 9.97277 4.18324 10.0994 3.61506 10.0994C3.01847 10.0994 2.48935 9.9562 2.0277 9.66974C1.56842 9.38329 1.20739 8.96307 0.944602 8.40909C0.684186 7.85275 0.553977 7.17093 0.553977 6.36364C0.553977 5.55634 0.685369 4.87571 0.948153 4.32173C1.2133 3.76539 1.5767 3.34399 2.03835 3.05753C2.5 2.77107 3.02557 2.62784 3.61506 2.62784C4.1572 2.62784 4.62831 2.73674 5.02841 2.95455C5.4285 3.16998 5.74811 3.44934 5.98722 3.79261C6.22869 4.13352 6.37902 4.49337 6.43821 4.87216L5.3125 4.94673C5.26989 4.74077 5.17992 4.53835 5.04261 4.33949C4.9053 4.14062 4.71946 3.97727 4.48509 3.84943C4.25071 3.71922 3.96425 3.65412 3.62571 3.65412C3.02912 3.65412 2.558 3.88258 2.21236 4.33949C1.86908 4.79403 1.69508 5.46993 1.69034 6.36719C1.69271 6.89512 1.74834 7.3331 1.85724 7.68111C1.96615 8.02675 2.11174 8.30019 2.29403 8.50142C2.47869 8.70028 2.68229 8.84115 2.90483 8.92401C3.12973 9.00687 3.35701 9.0483 3.58665 9.0483C3.88968 9.0483 4.17732 8.98556 4.44957 8.86009C4.7242 8.73224 4.94792 8.53456 5.12074 8.26705C5.29356 7.99716 5.37997 7.64915 5.37997 7.22301H3.77131V6.29261H6.48438ZM11.9917 9.01634V10H7.40362V2.72727H11.9562V3.71094H8.55064V5.86648H11.5407V6.85014H8.55064V9.01634H11.9917ZM18.1036 2.72727V3.71094H15.8699V10H14.7265V3.71094H12.4963V2.72727H18.1036ZM22.2272 2.72727V10H21.0767V2.72727H22.2272ZM28.5735 2.72727V3.71094H26.3398V10H25.1964V3.71094H22.9663V2.72727H28.5735ZM37.4628 6.36719C37.4628 7.14134 37.3338 7.80777 37.0757 8.36648C36.82 8.92282 36.4649 9.35133 36.0104 9.65199C35.5582 9.95028 35.0385 10.0994 34.4514 10.0994C33.8596 10.0994 33.3364 9.95028 32.8818 9.65199C32.4273 9.35133 32.071 8.92282 31.8129 8.36648C31.5549 7.80777 31.4259 7.14134 31.4259 6.36719C31.4259 5.59304 31.5549 4.92661 31.8129 4.3679C32.071 3.80919 32.4273 3.3795 32.8818 3.07884C33.3364 2.77817 33.8596 2.62784 34.4514 2.62784C35.0385 2.62784 35.5582 2.77817 36.0104 3.07884C36.4649 3.3795 36.82 3.80919 37.0757 4.3679C37.3338 4.92661 37.4628 5.59304 37.4628 6.36719ZM36.3264 6.36719C36.3264 5.4723 36.1512 4.80114 35.8009 4.35369C35.4505 3.90388 35.0007 3.67898 34.4514 3.67898C33.9022 3.67898 33.45 3.90388 33.0949 4.35369C32.7398 4.80114 32.5622 5.4723 32.5622 6.36719C32.5622 7.26207 32.7398 7.93324 33.0949 8.38068C33.45 8.82576 33.9022 9.0483 34.4514 9.0483C35.0007 9.0483 35.4505 8.82576 35.8009 8.38068C36.1512 7.93324 36.3264 7.26207 36.3264 6.36719ZM44.0195 2.72727V10H42.8973L39.5095 4.73011H39.442V10H38.295V2.72727H39.4207L42.8121 8.01491H42.8795V2.72727H44.0195Z" transform="translate(37 7)" fill="white"/>
<path d="M11.5952 7.1733V8.96946C11.5952 10.005 11.3693 10.9148 10.9176 11.6989C10.4659 12.4787 9.85014 13.0881 9.07031 13.527C8.29048 13.9616 7.41051 14.179 6.4304 14.179C5.33097 14.179 4.36577 13.9148 3.5348 13.3864C2.70384 12.858 2.05611 12.093 1.59162 11.0916C1.12713 10.0859 0.894886 8.87358 0.894886 7.45455C0.894886 6.01847 1.13139 4.79972 1.6044 3.7983C2.07741 2.79687 2.7294 2.03622 3.56037 1.51634C4.3956 0.992187 5.35227 0.730113 6.4304 0.730113C7.18892 0.730113 7.86435 0.849431 8.45668 1.08807C9.04901 1.3267 9.55824 1.64418 9.98438 2.04048C10.4105 2.43679 10.7514 2.87571 11.0071 3.35724C11.267 3.83452 11.4396 4.31392 11.5249 4.79545L9.10227 5.04474C9.03409 4.73366 8.89986 4.41832 8.69957 4.09872C8.50355 3.77486 8.22017 3.50213 7.84943 3.28054C7.48295 3.05895 7.01207 2.94815 6.43679 2.94815C5.49077 2.94815 4.74503 3.31463 4.19957 4.04759C3.65838 4.77628 3.38352 5.91832 3.375 7.47372C3.37926 8.62855 3.52202 9.52983 3.80327 10.1776C4.08878 10.821 4.46165 11.2749 4.92188 11.5391C5.3821 11.799 5.87642 11.929 6.40483 11.929C6.90767 11.929 7.37216 11.8267 7.7983 11.6222C8.22443 11.4176 8.56534 11.1044 8.82102 10.6825C9.08097 10.2607 9.21094 9.72585 9.21094 9.07812H6.58381V7.1733H11.5952ZM17.2597 14.1854C16.4202 14.1854 15.6659 13.9851 14.9969 13.5845C14.3321 13.1839 13.8037 12.6065 13.4117 11.8523C13.0239 11.0938 12.83 10.1797 12.83 9.11009C12.83 8.02344 13.0303 7.10511 13.4308 6.35511C13.8314 5.60085 14.3662 5.02983 15.0352 4.64205C15.7085 4.25 16.45 4.05398 17.2597 4.05398C18.0693 4.05398 18.8087 4.25 19.4777 4.64205C20.151 5.02983 20.6879 5.60085 21.0885 6.35511C21.4891 7.10511 21.6894 8.02344 21.6894 9.11009C21.6894 10.1797 21.4933 11.0938 21.1013 11.8523C20.7092 12.6065 20.1787 13.1839 19.5097 13.5845C18.8406 13.9851 18.0906 14.1854 17.2597 14.1854ZM17.2597 12.1847C17.9372 12.1847 18.455 11.9141 18.8129 11.3729C19.1709 10.8317 19.3499 10.0774 19.3499 9.11009C19.3499 8.13423 19.1688 7.37997 18.8065 6.8473C18.4443 6.31037 17.9287 6.0419 17.2597 6.0419C16.5906 6.0419 16.075 6.31037 15.7128 6.8473C15.3506 7.37997 15.1695 8.13423 15.1695 9.11009C15.1695 10.0774 15.3485 10.8317 15.7064 11.3729C16.0644 11.9141 16.5821 12.1847 17.2597 12.1847ZM27.0423 14.1854C26.2028 14.1854 25.4485 13.9851 24.7795 13.5845C24.1147 13.1839 23.5863 12.6065 23.1942 11.8523C22.8065 11.0938 22.6126 10.1797 22.6126 9.11009C22.6126 8.02344 22.8128 7.10511 23.2134 6.35511C23.614 5.60085 24.1488 5.02983 24.8178 4.64205C25.4911 4.25 26.2326 4.05398 27.0423 4.05398C27.8519 4.05398 28.5913 4.25 29.2603 4.64205C29.9336 5.02983 30.4705 5.60085 30.8711 6.35511C31.2717 7.10511 31.4719 8.02344 31.4719 9.11009C31.4719 10.1797 31.2759 11.0938 30.8839 11.8523C30.4918 12.6065 29.9613 13.1839 29.2923 13.5845C28.6232 13.9851 27.8732 14.1854 27.0423 14.1854ZM27.0423 12.1847C27.7198 12.1847 28.2376 11.9141 28.5955 11.3729C28.9535 10.8317 29.1325 10.0774 29.1325 9.11009C29.1325 8.13423 28.9513 7.37997 28.5891 6.8473C28.2269 6.31037 27.7113 6.0419 27.0423 6.0419C26.3732 6.0419 25.8576 6.31037 25.4954 6.8473C25.1332 7.37997 24.9521 8.13423 24.9521 9.11009C24.9521 10.0774 25.131 10.8317 25.489 11.3729C25.8469 11.9141 26.3647 12.1847 27.0423 12.1847ZM38.9086 4.21378H41.3312V13.7891C41.3312 14.6328 41.1331 15.3466 40.7368 15.9304C40.3447 16.5185 39.8014 16.9659 39.1068 17.2727C38.4165 17.5795 37.626 17.733 36.7353 17.733C35.8021 17.733 35.0074 17.5774 34.3511 17.2663C33.6991 16.9595 33.2325 16.642 32.9513 16.3139L34.1402 14.7095C34.4001 14.9311 34.7304 15.1527 35.1309 15.3743C35.5358 15.6001 36.0471 15.7131 36.665 15.7131C37.3511 15.7131 37.8987 15.5469 38.3078 15.2145C38.7211 14.8864 38.9321 14.3388 38.9406 13.5717V12.8111H38.7872C38.621 13.1392 38.3312 13.4205 37.9179 13.6548C37.5045 13.8849 36.9932 14 36.3838 14C35.6338 14 34.9584 13.8082 34.3575 13.4247C33.7566 13.0369 33.2794 12.4723 32.9257 11.7308C32.572 10.9893 32.3951 10.0838 32.3951 9.0142C32.3951 7.92756 32.5763 7.01562 32.9385 6.27841C33.3007 5.54119 33.7843 4.98509 34.3895 4.61009C34.9946 4.23509 35.6615 4.04759 36.3902 4.04759C37.0038 4.04759 37.5152 4.1669 37.9243 4.40554C38.3334 4.63991 38.621 4.91903 38.7872 5.2429H38.9086V4.21378ZM34.7155 9.00142C34.7155 9.90909 34.9051 10.6442 35.2843 11.2067C35.6679 11.7649 36.2304 12.044 36.9718 12.044C37.4875 12.044 37.9051 11.9098 38.2247 11.6413C38.5486 11.3729 38.7851 11.0107 38.9342 10.5547C39.0834 10.0945 39.1579 9.58097 39.1579 9.0142C39.1579 8.15767 38.9853 7.44176 38.6402 6.86648C38.295 6.29119 37.7389 6.00355 36.9718 6.00355C36.2261 6.00355 35.6636 6.27841 35.2843 6.82812C34.9051 7.37358 34.7155 8.09801 34.7155 9.00142ZM45.3993 0.909091V14H42.9576V0.909091H45.3993ZM51.4122 14.1854C50.4235 14.1854 49.5755 13.9787 48.8681 13.5653C48.1608 13.1477 47.6174 12.5661 47.2382 11.8203C46.8589 11.0746 46.6693 10.2074 46.6693 9.21875C46.6693 8.21733 46.8589 7.32884 47.2382 6.55327C47.6174 5.77344 48.1522 5.16193 48.8426 4.71875C49.5372 4.27557 50.3575 4.05398 51.3035 4.05398C52.1302 4.05398 52.8738 4.22869 53.5343 4.57812C54.1991 4.9233 54.7233 5.44531 55.1068 6.14418C55.4946 6.84304 55.6885 7.72088 55.6885 8.7777V9.80043H49.0216C49.1025 10.5462 49.339 11.13 49.7311 11.5518C50.1231 11.9737 50.6771 12.1847 51.393 12.1847C51.9853 12.1847 52.4349 12.0504 52.7417 11.782C53.0485 11.5092 53.268 11.1875 53.4001 10.8168L55.5862 11.4112C55.4669 11.8587 55.2346 12.2955 54.8895 12.7216C54.5485 13.1477 54.0904 13.4993 53.5152 13.7763C52.9399 14.049 52.2389 14.1854 51.4122 14.1854ZM51.2907 6.0419C50.7112 6.0419 50.2318 6.22301 49.8525 6.58523C49.4775 6.94744 49.224 7.45668 49.0919 8.11293H53.3745C53.3745 7.52486 53.1913 7.03267 52.8248 6.63636C52.4626 6.24006 51.9512 6.0419 51.2907 6.0419ZM66.415 9.4169H64.0691V14H61.5826V0.909091H66.4022C67.4718 0.909091 68.3475 1.10298 69.0294 1.49077C69.7154 1.87429 70.2225 2.39418 70.5507 3.05043C70.8831 3.70241 71.0493 4.43537 71.0493 5.24929C71.0493 6.48082 70.6679 7.48438 69.9051 8.25994C69.1466 9.03125 67.9832 9.4169 66.415 9.4169ZM64.0691 2.99929V7.34588H66.415C67.2034 7.34588 67.7637 7.12855 68.0961 6.69389C68.4328 6.25923 68.6011 5.75 68.6011 5.16619C68.6011 4.58239 68.4328 4.07528 68.0961 3.64489C67.7637 3.21449 67.1991 2.99929 66.4022 2.99929H64.0691ZM74.8792 0.909091V14H72.4375V0.909091H74.8792ZM82.0235 14V12.9837H81.9468C81.7934 13.2607 81.5143 13.5334 81.1094 13.8018C80.7089 14.0661 80.1549 14.1982 79.4475 14.1982C78.8424 14.1982 78.2927 14.0831 77.7984 13.853C77.304 13.6229 76.9099 13.2884 76.6158 12.8494C76.3261 12.4062 76.1812 11.8672 76.1812 11.2322C76.1812 10.2777 76.5306 9.5554 77.2295 9.06534C77.9283 8.57528 78.8935 8.27273 80.1251 8.15767C80.4234 8.12358 80.7089 8.09162 80.9816 8.06179C81.2543 8.0277 81.478 7.97017 81.6528 7.8892C81.8317 7.80824 81.9212 7.6804 81.9212 7.50568V7.36506C81.9212 6.91335 81.7763 6.57884 81.4866 6.36151C81.2011 6.13991 80.8474 6.02912 80.4255 6.02912C79.944 6.02912 79.554 6.14844 79.2557 6.38707C78.9617 6.62145 78.7572 6.91335 78.6421 7.26278L76.3793 6.82173C76.6137 5.91832 77.1059 5.23224 77.8559 4.76349C78.6101 4.29048 79.5029 4.05398 80.5341 4.05398C81.1734 4.05398 81.7849 4.15838 82.3687 4.36719C82.9567 4.57599 83.4383 4.92543 83.8133 5.41548C84.1883 5.90554 84.3758 6.57244 84.3758 7.41619V14H82.0235ZM81.9212 10.7145V9.4169C81.8573 9.48509 81.7273 9.54474 81.5313 9.59588C81.3395 9.64702 81.1307 9.69176 80.9049 9.73011C80.6833 9.7642 80.4958 9.7919 80.3424 9.81321C79.7543 9.88139 79.309 10.022 79.0065 10.2351C78.7039 10.4482 78.5526 10.772 78.5526 11.2067C78.5526 11.5646 78.6826 11.8438 78.9425 12.044C79.2025 12.2443 79.5413 12.3445 79.9589 12.3445C80.5214 12.3445 80.988 12.1825 81.3587 11.8587C81.7337 11.5348 81.9212 11.1534 81.9212 10.7145ZM88.2042 14.4027L88.3959 13.7955L84.9186 4.18182H87.4691L89.489 10.2862L91.3938 4.18182H93.9442L90.288 15.4254C90.1601 15.8132 89.9534 16.1903 89.6679 16.5568C89.3824 16.9276 89.0138 17.2322 88.5621 17.4709C88.1104 17.7138 87.5713 17.8352 86.9449 17.8352C86.506 17.8352 86.1118 17.782 85.7624 17.6754V15.7195C85.9115 15.7408 86.082 15.7514 86.2738 15.7514C86.7894 15.7514 87.1963 15.6491 87.4946 15.4446C87.7972 15.2401 88.0337 14.8928 88.2042 14.4027Z" transform="translate(37 20)" fill="white"/>
<path d="M21.2605 13.7921L16.7806 16.3792L2.19278 24.8023C1.21569 25.3681 -2.68816e-07 24.6518 -2.68816e-07 23.511V1.4906C-2.68816e-07 0.915717 0.310613 0.44572 0.747408 0.19934C1.17077 -0.0470398 1.71096 -0.0835282 2.19278 0.194765L16.7716 8.61777L16.7852 8.62692L21.2606 11.2094C22.2465 11.7799 22.2465 13.2218 21.2605 13.7921Z" transform="translate(10 10)" fill="#00D3FF"/>
<path d="M16.0377 8.62692L12.1296 12.5008L7.93008e-07 0.19934C0.423363 -0.0470398 0.963548 -0.0835282 1.44538 0.194765L16.0377 8.62692Z" transform="translate(10.7474 10)" fill="#00F076"/>
<path d="M16.0377 3.8739L12.1296 -7.08304e-07L7.93008e-07 12.3015C0.423363 12.5479 0.963548 12.5843 1.44538 12.3061L16.0377 3.8739Z" transform="translate(10.7474 22.4991)" fill="#F93647"/>
<path d="M8.38345 5.17443L3.90352 7.76153L1.07527e-06 3.88305L3.8946 5.85713e-07L3.90814 0.00915065L8.38356 2.59168C9.36946 3.16221 9.36946 4.60411 8.38345 5.17443Z" transform="translate(22.877 18.6177)" fill="#FFC900"/>
</svg>
